<svg id="Capa_1" data-name="Capa 1" xmlns="http://www.w3.org/2000/svg" viewBox="0 0 4486 1080"><defs><style>.cls-1,.cls-2{font-size:324.88px;}.cls-1,.cls-3,.cls-8{fill:#1bee9a;}.cls-1,.cls-2,.cls-3,.cls-4{font-family:DoctorGlitch, Doctor Glitch;}.cls-2,.cls-4,.cls-5,.cls-6,.cls-7{fill:#00003d;}.cls-3,.cls-4{font-size:141.36px;}.cls-5,.cls-6,.cls-7{stroke:#00003d;}.cls-5,.cls-6,.cls-7,.cls-8{stroke-miterlimit:10;}.cls-5{stroke-width:27px;}.cls-6,.cls-7{stroke-linecap:round;}.cls-6{stroke-width:70px;}.cls-7{stroke-width:95px;}.cls-8{stroke:#1bee9a;stroke-width:21px;}</style></defs><text class="cls-1" transform="translate(1818.81 557.52) scale(0.86 1)">ELECTRO HOUSE</text><text class="cls-2" transform="translate(1801.49 541.28) scale(0.86 1)">ELECTRO HOUSE</text><text class="cls-3" transform="translate(2701.92 769.02) scale(0.93 1)">TECHNOLOGY</text><text class="cls-4" transform="translate(2692.82 757.59) scale(0.93 1)">TECHNOLOGY</text><path class="cls-5" d="M984.37,507.22l40.55,101c7.4,3.8,24,14.25,55.44,42.42,32,28.69,69.8,66.86,109.82,107.27,61.19,61.81,130.55,131.87,197,185.54,82.65,66.78,148.2,98.09,205.61,98.09,1.88,0,3.75,0,5.62-.1a55.1,55.1,0,1,0-4-110.13c-16.81.58-57-8.15-138-73.58-61.68-49.83-128.75-117.58-187.93-177.35-49.92-50.42-97.07-98-136.73-131-27.34-22.71-91.37-75.88-147.39-42.17"/><path class="cls-5" d="M291.27,1042.62c-54.55,0-103.5-20.13-139.18-57.57C94.85,925,74,826.26,90.09,691.66,113.78,493.62,212.87,277.9,262,191.5c29.19-51.38,67.35-91.6,110.34-116.32C425.37,44.66,484.92,38,544.52,55.91a55.11,55.11,0,0,1,36.92,68.63c-8.76,29.14,111.22,81.3-68.63,36.91-80.64-19.9-140.35,47.66-164.1,89.47C312.28,315,221.91,517.45,199.51,704.75c-11.67,97.57-.18,170.12,32.37,204.28,16.51,17.33,39.27,25.1,67.65,23.09,38-2.69,64-12.86,96.08-37.54,40.18-30.94,87.46-84.22,146.09-154.7C667.83,588.29,851,388.46,958.8,285c8.12-7.81,17.12-16.66,26.64-26C1040.26,205,1115.34,131,1199.35,84c49.58-27.74,97.6-43.23,142.71-46,56-3.45,108,12,154.59,46.05a55.1,55.1,0,0,1,12,77c-18,24.57-21.13-6.28-51.26-2-11.69,1.67-63.45-40.07-178.65,16.7-73.07,36-165.62,112.08-216,161.66-9.78,9.62-19,18.71-27.63,27C942.85,453.07,764.74,644.1,626.42,810.36,563.1,886.47,511.05,944.77,462.84,981.89c-49.26,37.94-95.78,55.93-155.53,60.16Q299.23,1042.62,291.27,1042.62Z"/><ellipse class="cls-6" cx="1223.83" cy="381.92" rx="24.19" ry="24.84"/><ellipse class="cls-6" cx="1323.83" cy="282.56" rx="24.19" ry="24.84"/><ellipse class="cls-6" cx="1423.83" cy="381.92" rx="24.19" ry="24.84"/><ellipse class="cls-6" cx="1323.83" cy="484.59" rx="24.19" ry="24.84"/><line class="cls-7" x1="507.7" y1="282.56" x2="507.7" y2="484.59"/><line class="cls-7" x1="410.93" y1="381.92" x2="607.7" y2="381.96"/><path class="cls-8" d="M822.41,145.89c27.75,23.19-14.49,53.68-47,80.25a38.33,38.33,0,0,1-6.69,4.38c-18.42,9.52-45,.07-63.22-5.16-8.5-2.45-19.47-5.71-34-10.46-29.79-9.72-62.25-22.45-93.7-34.57C541,166.18,503,151.56,473,142.54c-28.72-8.63-58.5-3.29-88.52,15.86-28.67,18.28-56.64,49.07-76.74,84.45C263.06,321.48,184,485.8,156.43,702.8c-17,133.56,11,185.75,29.19,205,15.16,16,36.66,23.19,63.87,21.25,38-2.69,64-12.86,96.08-37.54,40.18-30.94,87.46-84.22,146.09-154.7C617.78,585.2,801,385.38,908.76,281.87c40.94-39.33,136.83-131.42,242-191.16,58.85-33.42,114.62-53.44,165.75-59.48,66.12-7.83,125.28,6.94,175.82,43.86,100.16,73.17,154.33,194.28,194.11,303.1,33.44,91.47,78,229.48,78.48,371.38.24,65.56-7.28,118.7-23,162.46-32.29,89.87-93.34,121.71-138.86,132.59a218.86,218.86,0,0,1-51.07,6.26c-47.61,0-93.81-17-144.53-52.37-58.64-40.91-126.6-108.17-220.65-201.25C1127,738.05,1059.21,671,974.61,591.13c-23.52-22.19-24.34-59.35-.66-81.38a55.09,55.09,0,0,1,75.3.31c86,81.15,157.57,152,215.07,208.88,185.31,183.4,241.92,235.51,313.11,218.5,51.7-12.36,77.71-75.43,77.29-187.46-.46-124.6-41.18-250.26-71.78-334-34.1-93.29-79.26-196.17-155.61-252-27.74-20.26-59.75-27.92-97.88-23.41-36.45,4.31-78.26,19.75-124.27,45.88C1112,239.47,1023.07,324.88,985.09,361.35,892.81,450,714.7,641,576.38,807.27,513.06,883.38,461,941.68,412.8,978.8c-49.26,37.94-95.78,55.93-155.53,60.16-60.86,4.3-113.32-14.87-151.71-55.45C49.47,924.2,29.81,825.09,47.11,688.91c30-235.8,116.12-414.79,164.81-500.5C241,137.18,281.26,93.53,325.21,65.49,382.67,28.83,444.75,19,504.72,37c42.87,12.89,84.23,30.16,126,46.07,42.74,16.28,86.59,29.66,130,44,12.26,4.05,24.86,7,37.28,10.58C805.09,139.65,816.59,141,822.41,145.89Z"/></svg>