<svg id="Capa_1" data-name="Capa 1" xmlns="http://www.w3.org/2000/svg" viewBox="0 0 1920 1080"><defs><style>.cls-1,.cls-2,.cls-3,.cls-5,.cls-7{fill:#00003d;}.cls-1,.cls-2,.cls-3{stroke:#00003d;stroke-miterlimit:10;}.cls-2,.cls-3{stroke-linecap:round;}.cls-2{stroke-width:40px;}.cls-3{stroke-width:56px;}.cls-4,.cls-5{font-size:190.06px;}.cls-4,.cls-6,.cls-8{fill:#1bee9a;}.cls-4,.cls-5,.cls-6,.cls-7{font-family:DoctorGlitch, Doctor Glitch;}.cls-6,.cls-7{font-size:106.16px;}</style></defs><path class="cls-1" d="M982.21,548l24.29,60.47c4.43,2.28,14.37,8.53,33.2,25.41,19.17,17.18,41.8,40,65.77,64.25,36.65,37,78.19,79,118,111.12,49.5,40,88.75,58.74,123.13,58.74,1.13,0,2.25,0,3.37-.06a33,33,0,0,0-2.37-65.95c-10.07.34-34.16-4.89-82.66-44.07-36.93-29.85-77.11-70.42-112.55-106.22-29.9-30.19-58.14-58.71-81.89-78.44-16.37-13.59-54.72-45.44-88.27-25.25"/><path class="cls-1" d="M567.1,868.66c-32.67,0-62-12.06-83.35-34.48-34.29-36-46.78-95.1-37.14-175.72,14.19-118.6,73.54-247.8,102.94-299.55,17.48-30.77,40.33-54.86,66.08-69.67C647.41,271,683.08,267,718.78,277.71a33,33,0,0,1,22.1,41.1c-5.24,17.45,66.62,48.69-41.1,22.1-48.3-11.92-84,28.55-98.28,53.59-21.82,38.4-75.94,159.62-89.36,271.8-7,58.44-.1,101.89,19.39,122.35,9.89,10.38,23.52,15,40.51,13.83,22.76-1.61,38.35-7.71,57.55-22.49,24.06-18.53,52.38-50.44,87.5-92.65,75.53-90.79,185.26-210.47,249.8-272.45,4.87-4.68,10.26-10,16-15.6C1015.68,367,1060.64,322.7,1111,294.55c29.7-16.62,58.45-25.89,85.47-27.56,33.54-2.07,64.7,7.2,92.59,27.57a33,33,0,0,1,7.18,46.12c-10.75,14.72-12.66-3.76-30.7-1.18-7,1-38-24-107,10-43.76,21.56-99.19,67.13-129.35,96.82-5.85,5.76-11.38,11.21-16.54,16.17C957.34,515.57,850.67,630,767.83,729.56c-37.93,45.58-69.1,80.49-98,102.73-29.51,22.72-57.37,33.49-93.15,36C573.48,868.54,570.27,868.66,567.1,868.66Z"/><ellipse class="cls-2" cx="1125.62" cy="472.95" rx="14.49" ry="14.88"/><ellipse class="cls-2" cx="1185.51" cy="413.45" rx="14.49" ry="14.88"/><ellipse class="cls-2" cx="1245.4" cy="472.95" rx="14.49" ry="14.88"/><ellipse class="cls-2" cx="1185.51" cy="534.44" rx="14.49" ry="14.88"/><line class="cls-3" x1="696.72" y1="413.45" x2="696.72" y2="534.44"/><line class="cls-3" x1="638.76" y1="472.95" x2="756.61" y2="472.98"/><text class="cls-4" transform="translate(193.51 203.17) scale(0.86 1)">ELECTRO HOUSE</text><text class="cls-5" transform="translate(183.38 193.67) scale(0.86 1)">ELECTRO HOUSE</text><text class="cls-6" transform="translate(549.74 1007.25) scale(0.93 1)">TECHNOLOGY</text><text class="cls-7" transform="translate(542.91 998.66) scale(0.93 1)">TECHNOLOGY</text><path class="cls-8" d="M885.21,331.59c16.62,13.89-8.68,32.16-28.18,48.07a23,23,0,0,1-4,2.62c-11,5.7-27,0-37.86-3.09-5.09-1.47-11.66-3.42-20.39-6.27-17.84-5.82-37.28-13.44-56.12-20.7-22-8.47-44.74-17.23-62.71-22.63-17.2-5.17-35-2-53,9.49-17.17,11-33.92,29.39-46,50.58-26.75,47.1-74.11,145.51-90.62,275.48-10.16,80,6.59,111.25,17.49,122.76,9.08,9.6,21.95,13.89,38.25,12.73,22.75-1.61,38.34-7.71,57.54-22.49,24.06-18.53,52.38-50.44,87.5-92.65C762.65,594.71,872.38,475,936.92,413c24.52-23.55,82-78.71,144.94-114.48,35.25-20,68.65-32,99.27-35.63,39.6-4.68,75,4.16,105.3,26.27,60,43.82,92.43,116.36,116.26,181.53,20,54.78,46.69,137.44,47,222.43.14,39.26-4.36,71.09-13.78,97.3-19.34,53.82-55.9,72.89-83.17,79.41a131.26,131.26,0,0,1-30.58,3.74c-28.52,0-56.19-10.17-86.56-31.36-35.13-24.5-75.83-64.78-132.15-120.53-35.83-35.46-76.42-75.64-127.09-123.45-14.09-13.3-14.57-35.55-.39-48.74a33,33,0,0,1,45.1.18c51.51,48.6,94.37,91,128.8,125.1,111,109.84,144.89,141.05,187.53,130.86,31-7.4,46.54-45.17,46.29-112.27-.27-74.62-24.67-149.89-43-200-20.43-55.87-47.47-117.49-93.2-150.89-16.61-12.14-35.79-16.73-58.62-14-21.83,2.59-46.87,11.83-74.42,27.48-55.82,31.7-109.08,82.85-131.82,104.7C927.37,513.72,820.7,628.13,737.86,727.71c-37.93,45.58-69.1,80.49-98,102.73-29.51,22.72-57.37,33.49-93.15,36-36.45,2.57-67.87-8.91-90.86-33.22-33.6-35.51-45.37-94.87-35-176.43,17.94-141.23,69.54-248.43,98.71-299.76,17.43-30.68,41.53-56.83,67.85-73.62,34.41-21.95,71.59-27.85,107.51-17.06,25.68,7.72,50.44,18.06,75.47,27.59,25.6,9.75,51.86,17.76,77.87,26.35,7.34,2.42,14.89,4.2,22.33,6.33C874.83,327.86,881.72,328.68,885.21,331.59Z"/></svg>